<svg width="44" height="18" viewBox="0 0 44 18" fill="none" xmlns="http://www.w3.org/2000/svg">
<mask id="mask0" mask-type="alpha" maskUnits="userSpaceOnUse" x="0" y="0" width="44" height="18">
<path d="M0 0H43.3944V18H0V0Z" fill="white"/>
</mask>
<g mask="url(#mask0)">
<path fill-rule="evenodd" clip-rule="evenodd" d="M4.53132 8.09684C3.59612 7.75094 3.0836 7.4819 3.0836 7.05912C3.0836 6.70034 3.3783 6.49539 3.9036 6.49539C4.86445 6.49539 5.85086 6.86695 6.5299 7.19998L6.91424 4.82993C6.37616 4.57367 5.27435 4.1509 3.74986 4.1509C2.6737 4.1509 1.77684 4.43272 1.13634 4.95802C0.470083 5.50887 0.124175 6.30321 0.124175 7.26407C0.124175 9.00639 1.18755 9.74952 2.91709 10.3772C4.03168 10.7744 4.40324 11.0563 4.40324 11.4918C4.40324 11.9146 4.04446 12.158 3.39108 12.158C2.58396 12.158 1.25164 11.7609 0.380435 11.2485L-0.00390625 13.6442C0.739122 14.0669 2.12275 14.5025 3.55769 14.5025C4.69784 14.5025 5.64591 14.2334 6.28651 13.721C7.00389 13.1573 7.37545 12.3246 7.37545 11.2485C7.37545 9.4676 6.28651 8.72457 4.53132 8.09684ZM13.6322 6.70034L14.0166 4.34307H11.9875V1.48145L9.25949 1.93036L8.86554 4.34307L7.90603 4.49873L7.54686 6.70034H8.8616V11.3253C8.8616 12.5296 9.16907 13.3623 9.7968 13.8748C10.3221 14.2975 11.0779 14.5025 12.1413 14.5025C12.9612 14.5025 13.4608 14.3616 13.8067 14.2719V11.7737C13.6146 11.825 13.179 11.9146 12.8843 11.9146C12.2566 11.9146 11.9875 11.5944 11.9875 10.8641V6.70034H13.6322ZM19.7256 4.20538C18.8288 4.20538 18.1113 4.6762 17.8295 5.52175L17.6374 4.34307H14.8573V14.3103H18.0345V7.84058C18.4317 7.35372 18.9953 7.17769 19.764 7.17769C19.9306 7.17769 20.1099 7.17769 20.3277 7.21612V4.28225C20.1099 4.23103 19.9178 4.20538 19.7256 4.20538ZM22.6979 3.35656C23.6203 3.35656 24.3633 2.60075 24.3633 1.67833C24.3633 0.74303 23.6203 0 22.6979 0C21.7626 0 21.0196 0.74303 21.0196 1.67833C21.0196 2.60075 21.7626 3.35656 22.6979 3.35656ZM21.0964 4.34307H24.2865V14.3103H21.0964V4.34307ZM33.3265 5.23984C32.7627 4.50958 31.9813 4.1509 30.982 4.1509C30.0596 4.1509 29.2524 4.53524 28.4965 5.34236L28.33 4.34307H25.5371V18L28.7144 17.4748V14.2719C29.2011 14.4256 29.7008 14.5025 30.1492 14.5025C30.9435 14.5025 32.0966 14.2975 32.9933 13.3239C33.8517 12.3886 34.2873 10.941 34.2873 9.03205C34.2873 7.34094 33.967 6.05983 33.3265 5.23984ZM30.6873 11.3893C30.431 11.8762 30.0339 12.1324 29.5727 12.1324C29.2524 12.1324 28.9705 12.0683 28.7144 11.9403V7.19998C29.2524 6.63634 29.7392 6.57225 29.9186 6.57225C30.7257 6.57225 31.1228 7.44346 31.1228 9.14735C31.1228 10.121 30.982 10.8769 30.6873 11.3893ZM43.3962 9.237C43.3962 7.64841 43.0503 6.39286 42.3713 5.50887C41.6794 4.61211 40.6417 4.1509 39.3222 4.1509C36.6189 4.1509 34.9407 6.14948 34.9407 9.3523C34.9407 11.1459 35.389 12.4911 36.273 13.3495C37.0674 14.1181 38.2076 14.5025 39.6809 14.5025C41.0388 14.5025 42.2944 14.1822 43.0887 13.6569L42.7428 11.4791C41.9613 11.9018 41.0517 12.1324 40.0268 12.1324C39.4118 12.1324 38.9891 12.0043 38.6816 11.7352C38.3485 11.4534 38.1563 10.9922 38.0923 10.3388H43.3578C43.3705 10.1851 43.3962 9.4676 43.3962 9.237ZM38.0666 8.39144C38.1563 6.96938 38.5406 6.30321 39.2709 6.30321C39.9883 6.30321 40.3599 6.98225 40.4111 8.39144H38.0666Z" fill="white"/>
</g>
</svg>
